<?xml version="1.0" encoding="UTF-8"?>
<svg width="25px" height="25px" viewBox="0 0 25 25" version="1.1" xmlns="http://www.w3.org/2000/svg" xmlns:xlink="http://www.w3.org/1999/xlink">
    <!-- Generator: Sketch 54.1 (76490) - https://sketchapp.com -->
    <title>FreeShipping-Red</title>
    <desc>Created with Sketch.</desc>
    <defs>
        <polygon id="path-1" points="0 0 19 0 19 13 0 13"></polygon>
    </defs>
    <g id="FreeShipping-Red" stroke="none" stroke-width="1" fill="none" fill-rule="evenodd">
        <g id="Group-10" transform="translate(0.000000, 8.000000)">
            <g id="Group-3" transform="translate(6.000000, 0.000000)">
                <mask id="mask-2" fill="white">
                    <use xlink:href="#path-1"></use>
                </mask>
                <g id="Clip-2"></g>
                <path d="M5.43490422,10.024 L13.7859042,10.024 C13.9269042,10.024 14.0609042,10.084 14.1559042,10.187 C14.2499042,10.292 14.2969042,10.43 14.2839042,10.571 C14.2739042,11.4 14.8239042,12 15.4999042,12 C16.1769042,12 16.7279042,11.4 16.7279042,10.664 C16.7189042,10.526 16.7619042,10.336 16.8559042,10.236 C16.9509042,10.135 17.0769042,10.024 17.2149042,10.024 L17.7769042,10.024 C17.9179042,10.024 17.9809042,9.996 17.9919042,9.986 C18.0059042,9.962 18.0019042,9.878 17.9979042,9.863 C17.9869042,9.822 17.9819042,9.779 17.9819042,9.737 L17.9819042,6.709 C17.9819042,6.209 17.7449042,5.867 17.7429042,5.864 L16.5709042,3.93 C16.2989042,3.44 15.9949042,3.478 15.9369042,3.491 C15.9019042,3.499 15.8479042,3.506 15.8129042,3.506 L13.9039042,3.506 C13.3969042,3.506 13.0979042,3.298 12.9349042,3.125 C12.5789042,2.743 12.6039042,2.236 12.6079042,2.179 L12.6069042,1.641 C12.6069042,1.075 12.3579042,1.003 12.2519042,1 L1.93090422,1 C1.54690422,1 1.26790422,1.083 1.12590422,1.24 C0.995904223,1.383 0.999904223,1.572 0.999904223,1.574 L1.00290422,9.595 C1.01690422,9.869 1.07990422,9.985 1.13690422,10.021 L2.00490422,10.024 C2.14090422,10.024 2.27090422,10.08 2.36590422,10.178 C2.45990422,10.276 2.50990422,10.409 2.50390422,10.545 C2.50390422,10.548 2.49290422,10.666 2.49290422,10.669 C2.49290422,11.4 3.04290422,12 3.71990422,12 C4.39690422,12 4.94690422,11.4 4.94690422,10.664 C4.93490422,10.524 4.97690422,10.337 5.07190422,10.235 C5.16690422,10.131 5.29490422,10.024 5.43490422,10.024 M15.4999042,13 C14.3889042,13 13.4659042,12.141 13.2999042,11.024 L5.92090422,11.024 C5.75490422,12.141 4.83090422,13 3.71990422,13 C2.60790422,13 1.68390422,12.14 1.51890422,11.021 L1.05990422,11.021 C0.671904223,10.971 0.0569042231,10.643 0.00690422305,9.721 C0.00590422305,9.712 0.00290422305,9.604 0.00290422305,9.595 L0.00290422305,1.623 C-0.00109577695,1.608 -0.0430957769,1.04 0.385904223,0.568 C0.726904223,0.191 1.24790422,0 1.93090422,0 L12.2539042,0 C12.2899042,0.002 12.7659042,-0.001 13.1499042,0.374 C13.4529042,0.67 13.6069042,1.096 13.6069042,1.641 L13.6069042,2.214 C13.6049042,2.285 13.6189042,2.393 13.6689042,2.445 C13.7209042,2.499 13.8379042,2.506 13.9039042,2.506 L15.7569042,2.506 C16.1639042,2.43 16.9379042,2.532 17.4359042,3.429 L18.5759042,5.312 C18.5939042,5.334 18.9819042,5.882 18.9819042,6.709 L18.9819042,9.688 C19.0109042,9.859 19.0419042,10.262 18.7819042,10.599 C18.6319042,10.793 18.3349042,11.024 17.7769042,11.024 L17.7019042,11.024 C17.5359042,12.141 16.6119042,13 15.4999042,13" id="Fill-1" fill="#D12420" mask="url(#mask-2)"></path>
            </g>
            <path d="M9.5,4 L1.5,4 C1.224,4 1,3.776 1,3.5 C1,3.224 1.224,3 1.5,3 L9.5,3 C9.776,3 10,3.224 10,3.5 C10,3.776 9.776,4 9.5,4" id="Fill-4" fill="#D12420"></path>
            <path d="M9.5,8 L1.5,8 C1.224,8 1,7.776 1,7.5 C1,7.224 1.224,7 1.5,7 L9.5,7 C9.776,7 10,7.224 10,7.5 C10,7.776 9.776,8 9.5,8" id="Fill-6" fill="#D12420"></path>
            <path d="M8.5,6 L0.5,6 C0.224,6 0,5.776 0,5.5 C0,5.224 0.224,5 0.5,5 L8.5,5 C8.776,5 9,5.224 9,5.5 C9,5.776 8.776,6 8.5,6" id="Fill-8" fill="#D12420"></path>
        </g>
    </g>
</svg>