<?xml version="1.0" encoding="UTF-8"?>
<svg width="25px" height="25px" viewBox="0 0 25 25" version="1.1" xmlns="http://www.w3.org/2000/svg" xmlns:xlink="http://www.w3.org/1999/xlink">
    <!-- Generator: Sketch 54.1 (76490) - https://sketchapp.com -->
    <title>FreeShipping-Color</title>
    <desc>Created with Sketch.</desc>
    <defs>
        <polygon id="path-1" points="1 0 20 0 20 13 1 13"></polygon>
    </defs>
    <g id="FreeShipping-Color" stroke="none" stroke-width="1" fill="none" fill-rule="evenodd">
        <g id="Group-10" transform="translate(0.000000, 8.000000)">
            <g id="Group-3" transform="translate(5.000000, 0.000000)">
                <mask id="mask-2" fill="white">
                    <use xlink:href="#path-1"></use>
                </mask>
                <g id="Clip-2"></g>
                <path d="M6.43490422,10.024 L14.7859042,10.024 C14.9269042,10.024 15.0609042,10.084 15.1559042,10.187 C15.2499042,10.292 15.2969042,10.43 15.2839042,10.571 C15.2739042,11.4 15.8239042,12 16.4999042,12 C17.1769042,12 17.7279042,11.4 17.7279042,10.664 C17.7189042,10.526 17.7619042,10.336 17.8559042,10.236 C17.9509042,10.135 18.0769042,10.024 18.2149042,10.024 L18.7769042,10.024 C18.9179042,10.024 18.9809042,9.996 18.9919042,9.986 C19.0059042,9.962 19.0019042,9.878 18.9979042,9.863 C18.9869042,9.822 18.9819042,9.779 18.9819042,9.737 L18.9819042,6.709 C18.9819042,6.209 18.7449042,5.867 18.7429042,5.864 L17.5709042,3.93 C17.2989042,3.44 16.9949042,3.478 16.9369042,3.491 C16.9019042,3.499 16.8479042,3.506 16.8129042,3.506 L14.9039042,3.506 C14.3969042,3.506 14.0979042,3.298 13.9349042,3.125 C13.5789042,2.743 13.6039042,2.236 13.6079042,2.179 L13.6069042,1.641 C13.6069042,1.075 13.3579042,1.003 13.2519042,1 L2.93090422,1 C2.54690422,1 2.26790422,1.083 2.12590422,1.24 C1.99590422,1.383 1.99990422,1.572 1.99990422,1.574 L2.00290422,9.595 C2.01690422,9.869 2.07990422,9.985 2.13690422,10.021 L3.00490422,10.024 C3.14090422,10.024 3.27090422,10.08 3.36590422,10.178 C3.45990422,10.276 3.50990422,10.409 3.50390422,10.545 C3.50390422,10.548 3.49290422,10.666 3.49290422,10.669 C3.49290422,11.4 4.04290422,12 4.71990422,12 C5.39690422,12 5.94690422,11.4 5.94690422,10.664 C5.93490422,10.524 5.97690422,10.337 6.07190422,10.235 C6.16690422,10.131 6.29490422,10.024 6.43490422,10.024 M16.4999042,13 C15.3889042,13 14.4659042,12.141 14.2999042,11.024 L6.92090422,11.024 C6.75490422,12.141 5.83090422,13 4.71990422,13 C3.60790422,13 2.68390422,12.14 2.51890422,11.021 L2.05990422,11.021 C1.67190422,10.971 1.05690422,10.643 1.00690422,9.721 C1.00590422,9.712 1.00290422,9.604 1.00290422,9.595 L1.00290422,1.623 C0.998904223,1.608 0.956904223,1.04 1.38590422,0.568 C1.72690422,0.191 2.24790422,0 2.93090422,0 L13.2539042,0 C13.2899042,0.002 13.7659042,-0.001 14.1499042,0.374 C14.4529042,0.67 14.6069042,1.096 14.6069042,1.641 L14.6069042,2.214 C14.6049042,2.285 14.6189042,2.393 14.6689042,2.445 C14.7209042,2.499 14.8379042,2.506 14.9039042,2.506 L16.7569042,2.506 C17.1639042,2.43 17.9379042,2.532 18.4359042,3.429 L19.5759042,5.312 C19.5939042,5.334 19.9819042,5.882 19.9819042,6.709 L19.9819042,9.688 C20.0109042,9.859 20.0419042,10.262 19.7819042,10.599 C19.6319042,10.793 19.3349042,11.024 18.7769042,11.024 L18.7019042,11.024 C18.5359042,12.141 17.6119042,13 16.4999042,13" id="Fill-1" fill="#63666A" mask="url(#mask-2)"></path>
            </g>
            <path d="M9.5,4 L1.5,4 C1.224,4 1,3.776 1,3.5 C1,3.224 1.224,3 1.5,3 L9.5,3 C9.776,3 10,3.224 10,3.5 C10,3.776 9.776,4 9.5,4" id="Fill-4" fill="#D12420"></path>
            <path d="M9.5,8 L1.5,8 C1.224,8 1,7.776 1,7.5 C1,7.224 1.224,7 1.5,7 L9.5,7 C9.776,7 10,7.224 10,7.5 C10,7.776 9.776,8 9.5,8" id="Fill-6" fill="#D12420"></path>
            <path d="M8.5,6 L0.5,6 C0.224,6 0,5.776 0,5.5 C0,5.224 0.224,5 0.5,5 L8.5,5 C8.776,5 9,5.224 9,5.5 C9,5.776 8.776,6 8.5,6" id="Fill-8" fill="#D12420"></path>
        </g>
    </g>
</svg>