<?xml version="1.0" encoding="UTF-8"?>
<svg width="25px" height="25px" viewBox="0 0 25 25" version="1.1" xmlns="http://www.w3.org/2000/svg" xmlns:xlink="http://www.w3.org/1999/xlink">
    <!-- Generator: Sketch 54.1 (76490) - https://sketchapp.com -->
    <title>Promo-Color Copy</title>
    <desc>Created with Sketch.</desc>
    <g id="Promo-Color-Copy" stroke="none" stroke-width="1" fill="none" fill-rule="evenodd">
        <g id="Group-9" transform="translate(8.000000, 2.000000)" fill="#D12420">
            <path d="M4.5,8 C4.224,8 4,7.84449844 4,7.6528983 L4,0.347101701 C4,0.154807359 4.224,0 4.5,0 C4.776,0 5,0.154807359 5,0.347101701 L5,7.6528983 C5,7.84449844 4.776,8 4.5,8" id="Fill-1"></path>
            <path d="M0.818181818,19.1752091 L8.18181818,19.1752091 L8.18181818,9.09296571 L5.95554545,6.82479086 L3.03463636,6.82479086 L0.818181818,9.09296571 L0.818181818,19.1752091 Z M8.59090909,20 L0.409090909,20 C0.183272727,20 0,19.8152468 0,19.5876046 L0,8.92388359 C0,8.81583598 0.0425454545,8.71108755 0.117818182,8.63520679 L2.57154545,6.12371863 C2.64845455,6.04453871 2.754,6 2.86363636,6 L6.12572727,6 C6.23536364,6 6.34009091,6.04453871 6.417,6.12289384 L8.88136364,8.634382 C8.95745455,8.71108755 9,8.81501119 9,8.92388359 L9,19.5876046 C9,19.8152468 8.81672727,20 8.59090909,20 L8.59090909,20 Z" id="Fill-3"></path>
            <path d="M4.5,8.002 C4.224,8.002 4,8.226 4,8.5 C4,8.774 4.224,8.998 4.5,8.998 C4.776,8.998 5,8.774 5,8.5 C5,8.226 4.776,8.002 4.5,8.002 M4.5,10 C3.673,10 3,9.3271028 3,8.5 C3,7.6728972 3.673,7 4.5,7 C5.327,7 6,7.6728972 6,8.5 C6,9.3271028 5.327,10 4.5,10" id="Fill-5"></path>
            <path d="M5.85833333,17.3912421 C6.16583333,17.3912421 6.41416667,17.128506 6.41416667,16.7833429 C6.41416667,16.4467659 6.16583333,16.1668575 5.85833333,16.1668575 C5.54333333,16.1668575 5.3025,16.4467659 5.3025,16.7833429 C5.3025,17.128506 5.54333333,17.3912421 5.85833333,17.3912421 L5.85833333,17.3912421 Z M5.85833333,15.5675444 C6.48166667,15.5675444 7,16.1179164 7,16.7833429 C7,17.4573555 6.48166667,18 5.85833333,18 C5.22,18 4.7175,17.4573555 4.7175,16.7833429 C4.7175,16.1179164 5.22,15.5675444 5.85833333,15.5675444 L5.85833333,15.5675444 Z M3.68833333,13.2166571 C3.68833333,12.8792215 3.44833333,12.6001717 3.13333333,12.6001717 C2.81833333,12.6001717 2.5775,12.8792215 2.5775,13.2166571 C2.5775,13.5618203 2.81833333,13.825415 3.13333333,13.825415 C3.44833333,13.825415 3.68833333,13.5618203 3.68833333,13.2166571 L3.68833333,13.2166571 Z M6.16583333,12.0987407 L6.87166667,12.0987407 L2.81833333,17.9021179 L2.1125,17.9021179 L6.16583333,12.0987407 Z M2,13.2166571 C2,12.5503721 2.5025,12 3.13333333,12 C3.76333333,12 4.275,12.5503721 4.275,13.2166571 C4.275,13.8898111 3.76333333,14.4333143 3.13333333,14.4333143 C2.5025,14.4333143 2,13.8898111 2,13.2166571 L2,13.2166571 Z" id="Fill-7"></path>
        </g>
    </g>
</svg>